<?xml version="1.0" standalone="no"?>
<!DOCTYPE svg PUBLIC "-//W3C//DTD SVG 20010904//EN"
 "http://www.w3.org/TR/2001/REC-SVG-20010904/DTD/svg10.dtd">
<svg version="1.0" xmlns="http://www.w3.org/2000/svg"
 width="900.000000pt" height="558.000000pt" viewBox="0 0 900.000000 558.000000"
 preserveAspectRatio="xMidYMid meet">

<g transform="translate(0.000000,558.000000) scale(0.100000,-0.100000)"
fill="white" stroke="none">
<path d="M4441 5475 c-80 -23 -180 -79 -260 -147 -39 -33 -71 -64 -71 -68 0
-4 17 -19 39 -34 21 -15 49 -38 61 -51 l23 -24 45 40 c25 22 79 56 121 77 70
34 81 37 166 37 86 0 96 -2 170 -39 150 -74 285 -238 410 -499 64 -132 179
-452 169 -469 -3 -4 -12 -8 -20 -8 -26 0 -425 -137 -548 -187 l-119 -50 -141
62 c-169 75 -389 158 -544 205 -111 34 -113 35 -109 63 3 23 -1 28 -22 33 -14
3 -50 14 -79 24 -58 20 -53 22 -68 -28 -2 -8 -12 -11 -21 -8 -34 11 -208 45
-308 61 -141 23 -448 31 -571 15 -270 -34 -462 -137 -561 -302 -45 -74 -63
-153 -63 -276 0 -104 0 -104 23 -98 12 4 50 12 85 19 l62 11 0 62 c0 200 134
345 376 406 126 32 438 32 625 0 137 -23 287 -56 296 -65 3 -3 -9 -63 -26
-134 -35 -148 -84 -428 -102 -591 l-13 -113 -115 -87 c-144 -108 -269 -210
-387 -318 l-91 -83 -59 62 c-33 34 -76 80 -95 103 l-36 40 -60 -57 -61 -56 95
-108 95 -107 -50 -51 c-192 -198 -391 -486 -481 -698 -213 -499 -25 -849 503
-934 117 -19 365 -19 526 0 108 12 340 54 392 71 13 4 22 -12 44 -78 113 -340
273 -627 444 -798 90 -89 157 -134 262 -178 88 -37 231 -38 331 -3 286 98 555
478 733 1034 27 83 30 88 53 82 13 -3 88 -17 166 -30 557 -95 986 -15 1162
217 77 101 103 183 104 323 0 187 -68 386 -213 619 -62 101 -198 281 -273 364
-48 52 -55 65 -45 77 7 9 11 17 9 18 -2 2 -26 16 -54 32 -27 16 -96 72 -152
126 -123 117 -309 276 -454 387 l-106 81 -12 103 c-16 135 -57 375 -87 512
-14 60 -23 110 -22 112 8 7 213 45 328 60 172 22 432 15 545 -15 257 -68 378
-217 362 -443 -3 -46 -9 -93 -12 -104 -5 -17 -1 -23 18 -28 14 -3 46 -22 71
-41 26 -19 48 -35 50 -35 2 0 12 28 22 63 14 48 19 94 19 202 -1 122 -4 147
-23 197 -131 328 -583 454 -1238 343 -78 -13 -152 -27 -165 -30 -23 -6 -26 -1
-58 97 -122 376 -276 655 -460 838 -102 101 -170 147 -267 181 -77 28 -210 34
-283 14z m-456 -1351 c83 -29 200 -74 260 -99 61 -26 123 -51 138 -57 28 -10
23 -13 -125 -90 -176 -91 -336 -183 -491 -280 l-108 -68 7 53 c19 167 94 572
111 600 6 10 38 1 208 -59z m1397 -80 c16 -73 59 -321 72 -422 l6 -43 -72 49
c-102 68 -272 169 -423 251 -117 64 -126 71 -104 80 13 5 49 19 79 31 92 37
404 140 415 137 5 -2 17 -39 27 -83z m-598 -272 c259 -135 675 -392 695 -430
5 -10 15 -138 21 -285 10 -205 10 -328 1 -533 -7 -146 -15 -272 -18 -281 -7
-18 -192 -142 -392 -263 -163 -98 -449 -250 -470 -250 -19 0 -242 108 -384
186 -279 152 -588 348 -602 381 -12 28 -18 724 -7 867 8 126 9 130 38 153 37
30 246 162 394 249 142 83 536 284 557 284 9 0 84 -35 167 -78z m1096 -727
c69 -57 161 -138 205 -180 l80 -75 -60 -56 c-119 -112 -426 -369 -430 -361 -1
1 2 79 7 172 8 166 3 581 -9 639 l-5 29 43 -32 c24 -17 100 -79 169 -136z
m-2435 -254 c0 -325 -2 -368 -15 -361 -51 29 -430 346 -430 361 0 13 421 365
440 368 3 1 5 -165 5 -368z m-230 -417 c55 -44 134 -105 176 -136 l76 -56 12
-118 c17 -157 54 -373 96 -563 19 -85 33 -157 31 -159 -8 -7 -217 -51 -328
-69 -80 -13 -170 -18 -308 -18 -168 0 -207 3 -282 22 -149 38 -265 111 -324
204 -56 89 -70 235 -34 374 52 204 236 494 467 736 l75 78 121 -107 c67 -59
167 -144 222 -188z m3227 109 c397 -493 436 -906 101 -1073 -108 -54 -199 -72
-388 -77 -123 -4 -204 -1 -291 11 -112 15 -325 54 -332 60 -1 2 8 52 22 112
30 137 71 377 87 512 l12 103 146 114 c136 106 405 339 460 398 l24 26 46 -51
c25 -28 76 -89 113 -135z m-2449 -636 c64 -38 184 -103 267 -146 l150 -77
-126 -53 c-197 -82 -501 -189 -508 -179 -13 17 -90 437 -111 606 l-7 53 109
-69 c59 -37 161 -98 226 -135z m1447 12 c-27 -174 -70 -392 -80 -402 -10 -12
-262 71 -499 164 -22 9 -12 16 112 84 131 72 375 218 447 268 19 14 36 24 38
22 1 -1 -7 -63 -18 -136z m-610 -414 c134 -52 442 -155 466 -155 7 0 15 -4 18
-8 3 -5 -19 -82 -49 -171 -171 -509 -416 -816 -671 -838 -127 -10 -229 33
-347 146 -79 76 -147 165 -206 270 -92 164 -234 528 -208 535 145 43 456 157
602 220 187 81 191 82 225 68 19 -8 96 -38 170 -67z"/>
<path d="M4442 3314 c-131 -35 -255 -130 -314 -240 -53 -99 -73 -244 -47 -354
40 -174 184 -318 366 -365 240 -63 501 82 582 321 61 183 18 369 -118 505
-127 126 -306 177 -469 133z"/>
<path d="M3800 5115 c-58 -18 -113 -64 -147 -122 -20 -34 -27 -63 -31 -119 -4
-65 -2 -80 22 -128 86 -175 311 -209 440 -66 21 23 45 59 54 79 20 47 20 155
0 202 -22 51 -84 116 -132 141 -52 26 -147 32 -206 13z"/>
<path d="M2240 3641 c-116 -36 -189 -137 -190 -262 -1 -229 269 -351 442 -200
82 73 116 208 76 302 -24 55 -87 119 -143 145 -51 24 -133 31 -185 15z"/>
<path d="M6496 3494 c-31 -10 -64 -31 -95 -62 -160 -160 -69 -428 155 -457
109 -15 226 51 274 152 27 58 31 159 7 214 -21 50 -82 116 -131 141 -53 27
-146 32 -210 12z"/>
</g>
</svg>
